# AST/ASF file generated using VICON BodyLanguage
# -----------------------------------------------
:version 1.10
:name VICON
:units
  mass 1.0
  length 0.45
  angle deg
:documentation
   .ast/.asf automatically generated from VICON data using
   VICON BodyBuilder and BodyLanguage model FoxedUp or BRILLIANT.MOD
:root
   order TX TY TZ RX RY RZ
   axis XYZ
   position 0 0 0  
   orientation 0 0 0 
:bonedata
  begin
     id 1 
     name lhipjoint
     direction 0.440178 -0.822639 0.359871 
     length 2.53113 
     axis 0 0 0  XYZ
  end
  begin
     id 2 
     name lfemur
     direction 0.34202 -0.939693 0  
     length 7.88132  
     axis 0 0 20  XYZ
    dof rx ry rz
    limits (-160.0 20.0)
           (-70.0 70.0)
           (-60.0 70.0)
  end
  begin
     id 3 
     name ltibia
     direction 0.34202 -0.939693 0   
     length 8.43783   
     axis 0 0 20   XYZ
    dof rx
    limits (-10.0 170.0)
  end
  begin
     id 4 
     name lfoot
     direction 0.0886351 -0.243523 0.965837   
     length 2.63414   
     axis -90 7.62852e-016 20   XYZ
    dof rx rz
    limits (-45.0 90.0)
           (-70.0 20.0)
  end
  begin
     id 5 
     name ltoes
     direction 1.53703e-011 -4.21717e-011 1   
     length 1.31427   
     axis -90 7.62852e-016 20   XYZ
    dof rx
    limits (-90.0 20.0)
  end
  begin
     id 6 
     name rhipjoint
     direction -0.399779 -0.839773 0.367367   
     length 2.47948  
     axis 0 0 0  XYZ 
  end
  begin
     id 7 
     name rfemur
     direction -0.34202 -0.939693 0   
     length 7.74806   
     axis 0 0 -20   XYZ
    dof rx ry rz
    limits (-160.0 20.0)
           (-70.0 70.0)
           (-70.0 60.0)
  end
  begin
     id 8 
     name rtibia
     direction -0.34202 -0.939693 0   
     length 8.74432   
     axis 0 0 -20   XYZ
    dof rx
    limits (-10.0 170.0)
 end
 begin
     id 9 
     name rfoot
     direction -0.108514 -0.298139 0.948334   
     length 2.66102  
     axis -90 -7.62852e-016 -20   XYZ
    dof rx rz
    limits (-45.0 90.0)
           (-20.0 70.0)
  end
  begin
     id 10 
     name rtoes
     direction -1.53392e-011 -4.22077e-011 1   
     length 1.31983   
     axis -90 -7.62852e-016 -20   XYZ
    dof rx
    limits (-90.0 20.0)
  end
  begin
     id 11 
     name lowerback
     direction 0.0113257 0.999866 0.0118602   
     length 2.58694   
     axis 0 0 0   XYZ
    dof rx ry rz
    limits (-20.0 45.0)
           (-30.0 30.0)
           (-30.0 30.0)
  end
  begin
     id 12 
     name upperback
     direction -0.0164747 0.995193 -0.0965375   
     length 2.52368   
     axis 0 0 0   XYZ
    dof rx ry rz
    limits (-20.0 45.0)
           (-30.0 30.0)
           (-30.0 30.0)
  end
  begin
     id 13 
     name thorax
     direction -0.0194301 0.99433 -0.104552   
     length 2.56099   
     axis 0 0 0   XYZ
    dof rx ry rz
    limits (-20.0 45.0)
           (-30.0 30.0)
           (-30.0 30.0)
  end
  begin
     id 14 
     name lowerneck
     direction 0.0148543 0.995587 -0.092657   
     length 1.71582   
     axis 0 0 0   XYZ
    dof rx ry rz
    limits (-20.0 45.0)
           (-30.0 30.0)
           (-30.0 30.0)
  end
  begin
     id 15 
     name upperneck
     direction -0.0135467 0.993656 -0.111639   
     length 1.68937   
     axis 0 0 0   XYZ
    dof rx ry rz
    limits (-20.0 45.0)
           (-30.0 30.0)
           (-30.0 30.0)
  end
  begin
     id 16
     name head
     direction -0.00615349 0.999547 -0.029448  
     length 1.7462  
     axis 0 0 0   XYZ
    dof rx ry rz
    limits (-20.0 45.0)
           (-30.0 30.0)
           (-30.0 30.0)
  end
  begin
     id 17 
     name lclavicle
     direction 0.988267 0.149885 0.0293713  
     length 4.47222  
     axis 0 0 0   XYZ
    dof ry rz
    limits (-20.0 10.0)
           (0.0 20.0)
  end
  begin
     id 18 
     name lhumerus
     direction 1 -4.48986e-011 -1.14833e-027   
     length 5.37148   
     axis 180 -30 -90   XYZ
    dof rx ry rz
    limits (-60.0 90.0)
           (-90.0 90.0)
           (-90.0 90.0)
  end
  begin
     id 19
     name lradius
     direction 0.999998 0.00170963 -0.000987055   
     length 3.94212   
     axis 180 -30 -90   XYZ
    dof rx
    limits (-10.0 170.0)
  end
  begin
     id 20
     name lwrist
     direction 0.999998 7.53149e-005 -0.00194706   
     length 1.97106   
     axis 4.65056e-015 90 90   XYZ
    dof ry
    limits (-180.0 0.0)
 end
  begin
     id 21 
     name lhand
     direction 1 -4.48973e-011 -1.31746e-026   
     length 1.17917   
     axis 8.4065e-015 90 90   XYZ
    dof rx rz
    limits (-90.0 90.0)
           (-45.0 45.0)
  end
  begin
     id 22 
     name lfingers
     direction 1 -4.49107e-011 -2.63492e-026   
     length 0.950679   
     axis 1.6813e-014 90 90   XYZ
    dof rx
    limits (0.0 90.0)
  end
  begin
     id 23
     name lthumb
     direction 0.707107 -6.35048e-011 0.707107   
     length 1.36499   
     axis -90 45 2.85299e-015   XYZ
    dof rx rz
    limits (-45.0 45.0)
           (-45.0 45.0)
  end
  begin
     id 24 
     name rclavicle
     direction -0.996699 0.0642895 -0.0495725   
     length 4.62611  
     axis 0 0 0   XYZ 
    dof ry rz
    limits (-10.0 20.0)
           (-20.0 0.0)
  end
  begin
     id 25 
     name rhumerus
     direction -1 -4.48919e-011 -2.41059e-027  
     length 5.4981   
     axis 180 30 90   XYZ
    dof rx ry rz
    limits (-90.0 60.0)
           (-90.0 90.0)
           (-90.0 90.0)
  end
  begin
     id 26 
     name rradius
     direction -0.999999 0.00118101 -0.000681858   
     length 3.48381   
     axis 180 30 90   XYZ
    dof rx
    limits (-10.0 170.0)
  end
  begin
     id 27 
     name rwrist
     direction -0.999999 0.000321823 -0.00132288   
     length 1.7419   
     axis 4.65056e-015 -90 -90   XYZ
    dof ry
    limits (-180.0 0.0)
  end
  begin
     id 28
     name rhand
     direction -1 -4.49022e-011 -1.31746e-026   
     length 1.34932   
     axis 8.4065e-015 -90 -90   XYZ
    dof rx rz
    limits (-90.0 90.0)
           (-45.0 45.0)
  end
  begin
     id 29
     name rfingers
     direction -1 -4.49178e-011 -2.63492e-026   
     length 1.08785   
     axis 1.6813e-014 -90 -90   XYZ
    dof rx
    limits (0.0 90.0)
  end
  begin
     id 30
     name rthumb
     direction -0.707107 -6.34713e-011 0.707107   
     length 1.56195   
     axis -90 -45 -2.85299e-015   XYZ
    dof rx rz
    limits (-45.0 45.0)
           (-45.0 45.0)
  end
:hierarchy
  begin
    root lhipjoint rhipjoint lowerback
    lhipjoint lfemur
    lfemur ltibia
    ltibia lfoot
    lfoot ltoes
    rhipjoint rfemur
    rfemur rtibia
    rtibia rfoot
    rfoot rtoes
    lowerback upperback
    upperback thorax
    thorax lowerneck lclavicle rclavicle
    lowerneck upperneck
    upperneck head
    lclavicle lhumerus
    lhumerus lradius
    lradius lwrist
    lwrist lhand lthumb
    lhand lfingers
    rclavicle rhumerus
    rhumerus rradius
    rradius rwrist
    rwrist rhand rthumb
    rhand rfingers
  end

#!OML:ASF X:\für Bonn\!DataBase\2005_08_10_Bjorn_Final\c3d\bjorn.ASF
:FULLY-SPECIFIED
:DEGREES
1
root -2.82129 18.2445 11.225 -541.632 12.6757 -538.766
lowerback 11.7093 1.32054 -3.10285
upperback 16.571 5.80825 -3.6956
thorax 11.8063 4.31773 -2.08793
lowerneck -8.4333 -0.885558 2.40847
upperneck -2.87926 -1.13139 0.0104986
head 0.489776 -0.470886 -0.42619
rclavicle 9.46215e-014 -7.07673e-014
rhumerus -14.0361 -11.3458 -91.9315
rradius 60.2491
rwrist 3.58245
rhand -21.2234 11.1542
rfingers 7.12502
rthumb 5.1586 -18.763
lclavicle 9.46215e-014 -7.07673e-014
lhumerus 0.571327 -31.6059 83.6577
lradius 33.0941
lwrist -8.36783
lhand -18.8541 -7.26126
lfingers 7.12502
lthumb 7.44602 22.5877
rfemur 323.541 -11.4613 -344.416
rtibia 32.8156
rfoot -10.2604 17.3672
rtoes -17.5776
lfemur -5.9004 -1.09464 -16.9443
ltibia 41.2872
lfoot -27.177 0.86438
ltoes -21.6635
2
root -2.8473 18.2742 11.3513 -541.519 12.7819 -538.573
lowerback 12.1654 1.35036 -3.2537
upperback 16.7383 5.96103 -3.82963
thorax 11.7757 4.43616 -2.17567
lowerneck -8.42452 -0.949196 2.22189
upperneck -3.30337 -1.16667 0.412121
head 0.357078 -0.472942 -0.270206
rclavicle 5.48646e-014 -9.54166e-015
rhumerus -14.1478 -11.4254 -92.3016
rradius 60.1741
rwrist 3.2477
rhand -21.2792 11.0352
rfingers 7.12502
rthumb 5.10474 -18.8833
lclavicle 5.48646e-014 -9.54166e-015
lhumerus 0.71898 -31.2856 83.3627
lradius 33.0384
lwrist -6.95511
lhand -19.3779 -7.05324
lfingers 7.12502
lthumb 6.94032 22.813
rfemur 323.6 -11.7511 -344.106
rtibia 32.9485
rfoot -10.3158 17.176
rtoes -18.3421
lfemur -6.46747 -0.937759 -16.6813
ltibia 41.3036
lfoot -26.795 0.818835
ltoes -21.7663
3
root -2.87054 18.3038 11.4767 -541.387 12.8799 -538.362
lowerback 12.6146 1.39177 -3.41559
upperback 16.869 6.10649 -3.93925
thorax 11.7002 4.54166 -2.23492
lowerneck -8.28636 -1.0059 2.02233
upperneck -3.75879 -1.18782 0.798014
head 0.19479 -0.47007 -0.116948
rclavicle 5.32743e-014 -3.89618e-014
rhumerus -14.3169 -11.4042 -92.6343
rradius 60.0421
rwrist 2.91465
rhand -21.3073 10.9118
rfingers 7.12502
rthumb 5.07765 -19.0074
lclavicle 5.32743e-014 -3.89618e-014
lhumerus 0.743359 -31.1387 83.0185
lradius 33.1518
lwrist -5.25085
lhand -19.9107 -6.73021
lfingers 7.12502
lthumb 6.42598 23.1523
rfemur 323.683 -11.8548 -343.854
rtibia 33.1196
rfoot -10.328 16.9761
rtoes -19.1117
lfemur -7.01974 -0.817166 -16.3965
ltibia 41.2742
lfoot -26.4165 0.743819
ltoes -21.8397
4
root -2.89176 18.3353 11.601 -541.231 12.9315 -538.167
lowerback 13.0258 1.42207 -3.61821
upperback 17.0114 6.23461 -4.01975
thorax 11.6544 4.63051 -2.23712
lowerneck -8.14909 -1.07311 1.82683
upperneck -4.26599 -1.21786 1.09597
head 0.0178222 -0.471962 0.00753479
rclavicle 2.70347e-014 -6.2816e-014
rhumerus -14.4429 -11.288 -92.9222
rradius 59.8552
rwrist 2.59438
rhand -21.2426 10.861
rfingers 7.12502
rthumb 5.14012 -19.0566
lclavicle 2.70347e-014 -6.2816e-014
lhumerus 0.78717 -30.8961 82.7297
lradius 33.2729
lwrist -3.52021
lhand -20.5504 -6.61963
lfingers 7.12502
lthumb 5.80848 23.2808
rfemur 323.788 -11.8163 -343.699
rtibia 33.3317
rfoot -10.2209 16.7676
rtoes -19.3755
lfemur -7.58523 -0.700363 -16.1224
ltibia 41.2056
lfoot -25.9962 0.695426
ltoes -22.1269
5
root -2.91122 18.3676 11.7243 -541.07 12.9728 -537.989
lowerback 13.4471 1.45493 -3.82445
upperback 17.1285 6.35878 -4.1241
thorax 11.5763 4.71777 -2.26736
lowerneck -7.9351 -1.13051 1.73399
upperneck -4.83837 -1.23682 1.34191
head -0.190661 -0.470426 0.0995028
rclavicle -6.91771e-014 5.88403e-014
rhumerus -14.5535 -11.1241 -93.2481
rradius 59.5944
rwrist 2.33501
rhand -21.1832 10.8656
rfingers 7.12502
rthumb 5.19751 -19.0507
lclavicle -6.91771e-014 5.88403e-014
lhumerus 0.797224 -30.6818 82.4255
lradius 33.4455
lwrist -1.74251
lhand -21.1407 -6.45352
lfingers 7.12502
lthumb 5.23849 23.4617
rfemur 323.938 -11.629 -343.631
rtibia 33.5818
rfoot -10.0658 16.5053
rtoes -19.3838
lfemur -8.14048 -0.59466 -15.8602
ltibia 41.1138
lfoot -25.5907 0.552494
ltoes -22.0669
6
root -2.92909 18.4013 11.8458 -540.883 12.9958 -537.811
lowerback 13.8349 1.49254 -4.03631
upperback 17.2271 6.47675 -4.21607
thorax 11.4921 4.79601 -2.28084
lowerneck -7.58305 -1.17918 1.72444
upperneck -5.50527 -1.24491 1.48909
head -0.448733 -0.467035 0.148813
rclavicle -3.10104e-014 -1.02573e-013
rhumerus -14.6692 -10.8945 -93.5632
rradius 59.3277
rwrist 2.08605
rhand -21.0443 10.8689
rfingers 7.12502
rthumb 5.33161 -19.044
lclavicle -3.10104e-014 -1.02573e-013
lhumerus 0.781603 -30.4392 82.1521
lradius 33.6291
lwrist 0.0116051
lhand -21.6878 -6.41198
lfingers 7.12502
lthumb 4.71026 23.5157
rfemur 324.118 -11.2474 -343.649
rtibia 33.8708
rfoot -9.89928 16.1825
rtoes -19.3506
lfemur -8.70618 -0.477976 -15.5934
ltibia 41.0001
lfoot -25.167 0.449875
ltoes -22.2069
7
root -2.94537 18.4356 11.9667 -540.695 12.9897 -537.668
lowerback 14.2278 1.52391 -4.30241
upperback 17.3284 6.5817 -4.29934
thorax 11.4043 4.86126 -2.25614
lowerneck -7.29922 -1.20791 1.76855
upperneck -6.11305 -1.23413 1.5489
head -0.678502 -0.455182 0.162935
rclavicle 1.35174e-014 -1.35174e-014
rhumerus -14.7401 -10.5613 -93.8701
rradius 59.0207
rwrist 1.87529
rhand -20.953 10.9072
rfingers 7.12502
rthumb 5.41969 -19.0035
lclavicle 1.35174e-014 -1.35174e-014
lhumerus 0.793875 -30.1795 81.8876
lradius 33.8426
lwrist 1.78905
lhand -22.1323 -6.38408
lfingers 7.12502
lthumb 4.28103 23.5526
rfemur 324.325 -10.7616 -343.752
rtibia 34.1922
rfoot -9.75218 15.8258
rtoes -19.3247
lfemur -9.2723 -0.380811 -15.3612
ltibia 40.8688
lfoot -24.737 0.302787
ltoes -22.3429
8
root -2.96051 18.4694 12.0853 -540.539 12.9682 -537.593
lowerback 14.6092 1.5521 -4.62701
upperback 17.4461 6.6915 -4.39992
thorax 11.3447 4.92731 -2.21683
lowerneck -7.05105 -1.23539 1.88647
upperneck -6.68552 -1.23016 1.52102
head -0.895144 -0.447941 0.138199
rclavicle -3.49861e-014 -8.74653e-015
rhumerus -14.7729 -10.1993 -94.1972
rradius 58.7115
rwrist 1.79426
rhand -20.8955 11.0378
rfingers 7.12502
rthumb 5.47526 -18.8715
lclavicle -3.49861e-014 -8.74653e-015
lhumerus 0.838797 -29.8451 81.6241
lradius 34.0559
lwrist 3.42163
lhand -22.5145 -6.30599
lfingers 7.12502
lthumb 3.91194 23.6379
rfemur 324.59 -10.1821 -343.979
rtibia 34.5333
rfoot -9.63139 15.499
rtoes -19.3863
lfemur -9.80319 -0.27957 -15.2039
ltibia 40.7277
lfoot -24.3191 0.178689
ltoes -22.5377
9
root -2.97423 18.5041 12.2017 -540.351 12.9099 -537.486
lowerback 14.9718 1.57029 -4.89528
upperback 17.5638 6.78946 -4.49044
thorax 11.2991 4.99239 -2.1961
lowerneck -6.86634 -1.28262 1.96596
upperneck -7.22089 -1.24914 1.52331
head -1.09193 -0.450125 0.128007
rclavicle 3.73715e-014 -1.19271e-014
rhumerus -14.7624 -9.81731 -94.5334
rradius 58.3994
rwrist 1.82339
rhand -20.8864 11.1878
rfingers 7.12502
rthumb 5.48406 -18.7212
lclavicle 3.73715e-014 -1.19271e-014
lhumerus 0.940123 -29.4893 81.3579
lradius 34.2276
lwrist 4.96359
lhand -22.8565 -6.22425
lfingers 7.12502
lthumb 3.58164 23.7254
rfemur 324.874 -9.5707 -344.191
rtibia 34.8741
rfoot -9.45219 15.1997
rtoes -19.2425
lfemur -10.3581 -0.188337 -15.001
ltibia 40.5906
lfoot -23.9369 -0.0369415
ltoes -22.6343
10
root -2.98602 18.5371 12.3162 -540.138 12.8421 -537.376
lowerback 15.3061 1.59787 -5.15083
upperback 17.6867 6.90303 -4.56907
thorax 11.2766 5.06528 -2.16787
lowerneck -6.68981 -1.34201 1.96223
upperneck -7.7706 -1.27103 1.6232
head -1.29261 -0.450961 0.161276
rclavicle -7.4743e-014 -3.18055e-015
rhumerus -14.7223 -9.39021 -94.8545
rradius 58.0886
rwrist 1.88682
rhand -21.0279 11.4129
rfingers 7.12502
rthumb 5.3474 -18.4997
lclavicle -7.4743e-014 -3.18055e-015
lhumerus 1.07259 -29.0827 81.1386
lradius 34.4119
lwrist 6.34294
lhand -23.152 -5.99982
lfingers 7.12502
lthumb 3.29627 23.9544
rfemur 325.156 -8.94912 -344.397
rtibia 35.2069
rfoot -9.29568 14.9203
rtoes -19.1714
lfemur -10.9406 -0.0487516 -14.7898
ltibia 40.469
lfoot -23.5827 -0.248572
ltoes -22.8828
11
root -2.99688 18.5687 12.4285 -539.87 12.7645 -537.197
lowerback 15.6036 1.62417 -5.32141
upperback 17.7975 7.00673 -4.61603
thorax 11.2595 5.13497 -2.14965
lowerneck -6.45696 -1.41363 1.82933
upperneck -8.38233 -1.29056 1.81538
head -1.52277 -0.447359 0.24519
rclavicle 1.03368e-014 3.97569e-015
rhumerus -14.6974 -8.94995 -95.1649
rradius 57.8073
rwrist 2.05894
rhand -21.2444 11.6466
rfingers 7.12502
rthumb 5.1384 -18.2711
lclavicle 1.03368e-014 3.97569e-015
lhumerus 1.19152 -28.6726 80.9762
lradius 34.6396
lwrist 7.4356
lhand -23.5054 -5.42876
lfingers 7.12502
lthumb 2.95499 24.5305
rfemur 325.422 -8.30291 -344.534
rtibia 35.5318
rfoot -9.19909 14.6964
rtoes -19.3159
lfemur -11.565 0.0969459 -14.5057
ltibia 40.3651
lfoot -23.2176 -0.435687
ltoes -23.3338
